<mxfile host="65bd71144e">
    <diagram id="IRMS-bee_XI68aoxDBAi" name="Tree">
        <mxGraphModel dx="657" dy="1585" grid="1" gridSize="10" guides="1" tooltips="1" connect="1" arrows="1" fold="1" page="1" pageScale="1" pageWidth="850" pageHeight="1100" math="0" shadow="0">
            <root>
                <mxCell id="0"/>
                <mxCell id="1" parent="0"/>
                <mxCell id="5" value="" style="sketch=0;aspect=fixed;pointerEvents=1;shadow=0;dashed=0;html=1;strokeColor=none;labelPosition=center;verticalLabelPosition=bottom;verticalAlign=top;align=center;fillColor=#23A8D4;shape=mxgraph.mscae.enterprise.folder" vertex="1" parent="1">
                    <mxGeometry x="80" y="159" width="46.51" height="40" as="geometry"/>
                </mxCell>
                <mxCell id="6" value="task1" style="text;html=1;resizable=0;autosize=1;align=center;verticalAlign=middle;points=[];fillColor=none;strokeColor=none;rounded=0;fontColor=#23A8D4;fontStyle=1;fontSize=13;" vertex="1" parent="1">
                    <mxGeometry x="135" y="170.5" width="50" height="20" as="geometry"/>
                </mxCell>
                <mxCell id="7" value="" style="sketch=0;aspect=fixed;pointerEvents=1;shadow=0;dashed=0;html=1;strokeColor=none;labelPosition=center;verticalLabelPosition=bottom;verticalAlign=top;align=center;fillColor=#23A8D4;shape=mxgraph.mscae.enterprise.folder" vertex="1" parent="1">
                    <mxGeometry x="80" y="359" width="46.51" height="40" as="geometry"/>
                </mxCell>
                <mxCell id="8" value="task2" style="text;html=1;resizable=0;autosize=1;align=center;verticalAlign=middle;points=[];fillColor=none;strokeColor=none;rounded=0;fontColor=#23A8D4;fontStyle=1;fontSize=13;" vertex="1" parent="1">
                    <mxGeometry x="135" y="370.5" width="50" height="20" as="geometry"/>
                </mxCell>
                <mxCell id="9" value="" style="sketch=0;aspect=fixed;pointerEvents=1;shadow=0;dashed=0;html=1;strokeColor=none;labelPosition=center;verticalLabelPosition=bottom;verticalAlign=top;align=center;fillColor=#23A8D4;shape=mxgraph.mscae.enterprise.folder" vertex="1" parent="1">
                    <mxGeometry x="80" y="440" width="46.51" height="40" as="geometry"/>
                </mxCell>
                <mxCell id="10" value="task3" style="text;html=1;resizable=0;autosize=1;align=center;verticalAlign=middle;points=[];fillColor=none;strokeColor=none;rounded=0;fontColor=#23A8D4;fontStyle=1;fontSize=13;" vertex="1" parent="1">
                    <mxGeometry x="135" y="450" width="50" height="20" as="geometry"/>
                </mxCell>
                <mxCell id="11" value="" style="sketch=0;aspect=fixed;pointerEvents=1;shadow=0;dashed=0;html=1;strokeColor=none;labelPosition=center;verticalLabelPosition=bottom;verticalAlign=top;align=center;fillColor=#23A8D4;shape=mxgraph.mscae.enterprise.folder" vertex="1" parent="1">
                    <mxGeometry x="40" y="79" width="46.51" height="40" as="geometry"/>
                </mxCell>
                <mxCell id="12" value="" style="verticalLabelPosition=bottom;html=1;verticalAlign=top;align=center;strokeColor=none;fillColor=#767171;shape=mxgraph.azure.file_2;pointerEvents=1;fontSize=13;fontColor=#23A8D4;aspect=fixed;" vertex="1" parent="1">
                    <mxGeometry x="200" y="220" width="19" height="20" as="geometry"/>
                </mxCell>
                <mxCell id="13" value="terraform" style="text;html=1;resizable=0;autosize=1;align=center;verticalAlign=middle;points=[];fillColor=none;strokeColor=none;rounded=0;fontColor=#23A8D4;fontStyle=1;fontSize=13;" vertex="1" parent="1">
                    <mxGeometry x="100" y="89" width="70" height="20" as="geometry"/>
                </mxCell>
                <mxCell id="16" value="" style="verticalLabelPosition=bottom;html=1;verticalAlign=top;align=center;strokeColor=none;fillColor=#767171;shape=mxgraph.azure.file_2;pointerEvents=1;fontSize=13;fontColor=#23A8D4;aspect=fixed;" vertex="1" parent="1">
                    <mxGeometry x="200" y="249" width="19" height="20" as="geometry"/>
                </mxCell>
                <mxCell id="17" value="" style="verticalLabelPosition=bottom;html=1;verticalAlign=top;align=center;strokeColor=none;fillColor=#767171;shape=mxgraph.azure.file_2;pointerEvents=1;fontSize=13;fontColor=#23A8D4;aspect=fixed;" vertex="1" parent="1">
                    <mxGeometry x="200" y="310" width="19" height="20" as="geometry"/>
                </mxCell>
                <mxCell id="18" value="main.tf" style="text;html=1;resizable=0;autosize=1;align=left;verticalAlign=middle;points=[];fillColor=none;strokeColor=none;rounded=0;fontColor=#767171;fontStyle=1;fontSize=13;" vertex="1" parent="1">
                    <mxGeometry x="240" y="220" width="60" height="20" as="geometry"/>
                </mxCell>
                <mxCell id="19" value="output.tf" style="text;html=1;resizable=0;autosize=1;align=left;verticalAlign=middle;points=[];fillColor=none;strokeColor=none;rounded=0;fontColor=#767171;fontStyle=1;fontSize=13;" vertex="1" parent="1">
                    <mxGeometry x="240" y="310" width="70" height="20" as="geometry"/>
                </mxCell>
                <mxCell id="20" value="variables.tf" style="text;html=1;resizable=0;autosize=1;align=left;verticalAlign=middle;points=[];fillColor=none;strokeColor=none;rounded=0;fontColor=#767171;fontStyle=1;fontSize=13;" vertex="1" parent="1">
                    <mxGeometry x="240" y="249" width="80" height="20" as="geometry"/>
                </mxCell>
                <mxCell id="21" value="" style="verticalLabelPosition=bottom;html=1;verticalAlign=top;align=center;strokeColor=none;fillColor=#767171;shape=mxgraph.azure.file_2;pointerEvents=1;fontSize=13;fontColor=#23A8D4;aspect=fixed;" vertex="1" parent="1">
                    <mxGeometry x="200" y="278.5" width="19" height="20" as="geometry"/>
                </mxCell>
                <mxCell id="22" value="" style="verticalLabelPosition=bottom;html=1;verticalAlign=top;align=center;strokeColor=none;fillColor=#767171;shape=mxgraph.azure.file_2;pointerEvents=1;fontSize=13;fontColor=#23A8D4;aspect=fixed;" vertex="1" parent="1">
                    <mxGeometry x="200" y="340" width="19" height="20" as="geometry"/>
                </mxCell>
                <mxCell id="25" value="config.tf" style="text;html=1;resizable=0;autosize=1;align=left;verticalAlign=middle;points=[];fillColor=none;strokeColor=none;rounded=0;fontColor=#767171;fontStyle=1;fontSize=13;" vertex="1" parent="1">
                    <mxGeometry x="240" y="340" width="70" height="20" as="geometry"/>
                </mxCell>
                <mxCell id="26" value="datasource.tf" style="text;html=1;resizable=0;autosize=1;align=left;verticalAlign=middle;points=[];fillColor=none;strokeColor=none;rounded=0;fontColor=#767171;fontStyle=1;fontSize=13;" vertex="1" parent="1">
                    <mxGeometry x="240" y="279" width="100" height="20" as="geometry"/>
                </mxCell>
                <mxCell id="27" value="" style="sketch=0;aspect=fixed;pointerEvents=1;shadow=0;dashed=0;html=1;strokeColor=none;labelPosition=center;verticalLabelPosition=bottom;verticalAlign=top;align=center;fillColor=#23A8D4;shape=mxgraph.mscae.enterprise.folder" vertex="1" parent="1">
                    <mxGeometry x="40" width="46.51" height="40" as="geometry"/>
                </mxCell>
                <mxCell id="28" value="states" style="text;html=1;resizable=0;autosize=1;align=center;verticalAlign=middle;points=[];fillColor=none;strokeColor=none;rounded=0;fontColor=#23A8D4;fontStyle=1;fontSize=13;" vertex="1" parent="1">
                    <mxGeometry x="110" y="10" width="50" height="20" as="geometry"/>
                </mxCell>
                <mxCell id="33" style="edgeStyle=orthogonalEdgeStyle;html=1;exitX=0;exitY=0.5;exitDx=0;exitDy=0;exitPerimeter=0;fontSize=13;fontColor=#767171;rounded=0;endArrow=none;endFill=0;strokeColor=#23A8D4;entryX=0.5;entryY=1;entryDx=0;entryDy=0;entryPerimeter=0;" edge="1" parent="1" source="29" target="35">
                    <mxGeometry relative="1" as="geometry">
                        <mxPoint x="20" y="-140" as="targetPoint"/>
                    </mxGeometry>
                </mxCell>
                <mxCell id="29" value="" style="sketch=0;aspect=fixed;pointerEvents=1;shadow=0;dashed=0;html=1;strokeColor=none;labelPosition=center;verticalLabelPosition=bottom;verticalAlign=top;align=center;fillColor=#23A8D4;shape=mxgraph.mscae.enterprise.folder" vertex="1" parent="1">
                    <mxGeometry x="40" y="-80" width="46.51" height="40" as="geometry"/>
                </mxCell>
                <mxCell id="30" value="project" style="text;html=1;resizable=0;autosize=1;align=center;verticalAlign=middle;points=[];fillColor=none;strokeColor=none;rounded=0;fontColor=#23A8D4;fontStyle=1;fontSize=13;" vertex="1" parent="1">
                    <mxGeometry x="105" y="-70" width="60" height="20" as="geometry"/>
                </mxCell>
                <mxCell id="31" value="" style="verticalLabelPosition=bottom;html=1;verticalAlign=top;align=center;strokeColor=none;fillColor=#767171;shape=mxgraph.azure.file_2;pointerEvents=1;fontSize=13;fontColor=#23A8D4;aspect=fixed;" vertex="1" parent="1">
                    <mxGeometry x="200" y="-40" width="19" height="20" as="geometry"/>
                </mxCell>
                <mxCell id="32" value="custom_orchestrator.py" style="text;html=1;resizable=0;autosize=1;align=left;verticalAlign=middle;points=[];fillColor=none;strokeColor=none;rounded=0;fontColor=#767171;fontStyle=1;fontSize=13;" vertex="1" parent="1">
                    <mxGeometry x="240" y="-40" width="160" height="20" as="geometry"/>
                </mxCell>
                <mxCell id="35" value="" style="verticalLabelPosition=bottom;html=1;verticalAlign=top;align=center;strokeColor=none;fillColor=#00BEF2;shape=mxgraph.azure.git_repository;fontSize=13;fontColor=#767171;aspect=fixed;" vertex="1" parent="1">
                    <mxGeometry y="-362" width="40" height="40" as="geometry"/>
                </mxCell>
                <mxCell id="37" style="edgeStyle=orthogonalEdgeStyle;html=1;exitX=0;exitY=0.5;exitDx=0;exitDy=0;exitPerimeter=0;fontSize=13;fontColor=#767171;rounded=0;endArrow=none;endFill=0;strokeColor=#23A8D4;entryX=0.5;entryY=1;entryDx=0;entryDy=0;entryPerimeter=0;" edge="1" parent="1" source="27" target="35">
                    <mxGeometry relative="1" as="geometry">
                        <mxPoint x="26" y="-140" as="targetPoint"/>
                        <mxPoint x="50" y="-50" as="sourcePoint"/>
                    </mxGeometry>
                </mxCell>
                <mxCell id="38" style="edgeStyle=orthogonalEdgeStyle;html=1;fontSize=13;fontColor=#767171;rounded=0;endArrow=none;endFill=0;strokeColor=#23A8D4;entryX=0.5;entryY=1;entryDx=0;entryDy=0;entryPerimeter=0;" edge="1" parent="1" source="11" target="35">
                    <mxGeometry relative="1" as="geometry">
                        <mxPoint x="36" y="-130" as="targetPoint"/>
                        <mxPoint x="60" y="-40" as="sourcePoint"/>
                        <Array as="points">
                            <mxPoint x="20" y="99"/>
                        </Array>
                    </mxGeometry>
                </mxCell>
                <mxCell id="39" style="edgeStyle=orthogonalEdgeStyle;html=1;fontSize=13;fontColor=#767171;rounded=0;endArrow=none;endFill=0;strokeColor=#23A8D4;entryX=0.5;entryY=1;entryDx=0;entryDy=0;entryPerimeter=0;exitX=0;exitY=0.5;exitDx=0;exitDy=0;exitPerimeter=0;" edge="1" parent="1" source="5" target="11">
                    <mxGeometry relative="1" as="geometry">
                        <mxPoint x="26" y="-140" as="targetPoint"/>
                        <mxPoint x="50" y="109" as="sourcePoint"/>
                    </mxGeometry>
                </mxCell>
                <mxCell id="40" style="edgeStyle=orthogonalEdgeStyle;html=1;fontSize=13;fontColor=#767171;rounded=0;endArrow=none;endFill=0;strokeColor=#23A8D4;entryX=0.5;entryY=1;entryDx=0;entryDy=0;entryPerimeter=0;exitX=0;exitY=0.5;exitDx=0;exitDy=0;exitPerimeter=0;" edge="1" parent="1" source="7" target="11">
                    <mxGeometry relative="1" as="geometry">
                        <mxPoint x="73.25500000000011" y="129" as="targetPoint"/>
                        <mxPoint x="90" y="189" as="sourcePoint"/>
                    </mxGeometry>
                </mxCell>
                <mxCell id="41" style="edgeStyle=orthogonalEdgeStyle;html=1;fontSize=13;fontColor=#767171;rounded=0;endArrow=none;endFill=0;strokeColor=#23A8D4;entryX=0.5;entryY=1;entryDx=0;entryDy=0;entryPerimeter=0;exitX=0;exitY=0.5;exitDx=0;exitDy=0;exitPerimeter=0;" edge="1" parent="1" source="9" target="11">
                    <mxGeometry relative="1" as="geometry">
                        <mxPoint x="73.25500000000011" y="129" as="targetPoint"/>
                        <mxPoint x="90" y="317" as="sourcePoint"/>
                    </mxGeometry>
                </mxCell>
                <mxCell id="42" style="edgeStyle=orthogonalEdgeStyle;html=1;exitX=0;exitY=0.5;exitDx=0;exitDy=0;exitPerimeter=0;fontSize=13;fontColor=#767171;rounded=0;endArrow=none;endFill=0;strokeColor=#767171;entryX=0.5;entryY=1;entryDx=0;entryDy=0;entryPerimeter=0;" edge="1" parent="1" source="31" target="29">
                    <mxGeometry relative="1" as="geometry">
                        <mxPoint x="30" y="-91" as="targetPoint"/>
                        <mxPoint x="50" y="-50" as="sourcePoint"/>
                    </mxGeometry>
                </mxCell>
                <mxCell id="43" style="edgeStyle=orthogonalEdgeStyle;html=1;exitX=0;exitY=0.5;exitDx=0;exitDy=0;exitPerimeter=0;fontSize=13;fontColor=#767171;rounded=0;endArrow=none;endFill=0;strokeColor=#767171;entryX=0.5;entryY=1;entryDx=0;entryDy=0;entryPerimeter=0;" edge="1" parent="1" source="12" target="5">
                    <mxGeometry relative="1" as="geometry">
                        <mxPoint x="73.255" y="-30" as="targetPoint"/>
                        <mxPoint x="120" y="-20" as="sourcePoint"/>
                    </mxGeometry>
                </mxCell>
                <mxCell id="46" style="edgeStyle=orthogonalEdgeStyle;html=1;exitX=0;exitY=0.5;exitDx=0;exitDy=0;exitPerimeter=0;fontSize=13;fontColor=#767171;rounded=0;endArrow=none;endFill=0;strokeColor=#767171;entryX=0.5;entryY=1;entryDx=0;entryDy=0;entryPerimeter=0;" edge="1" parent="1" source="16" target="5">
                    <mxGeometry relative="1" as="geometry">
                        <mxPoint x="113.255" y="209" as="targetPoint"/>
                        <mxPoint x="210" y="240" as="sourcePoint"/>
                    </mxGeometry>
                </mxCell>
                <mxCell id="47" style="edgeStyle=orthogonalEdgeStyle;html=1;exitX=0;exitY=0.5;exitDx=0;exitDy=0;exitPerimeter=0;fontSize=13;fontColor=#767171;rounded=0;endArrow=none;endFill=0;strokeColor=#767171;entryX=0.5;entryY=1;entryDx=0;entryDy=0;entryPerimeter=0;" edge="1" parent="1" source="21" target="5">
                    <mxGeometry relative="1" as="geometry">
                        <mxPoint x="113.255" y="209" as="targetPoint"/>
                        <mxPoint x="210" y="269" as="sourcePoint"/>
                    </mxGeometry>
                </mxCell>
                <mxCell id="48" style="edgeStyle=orthogonalEdgeStyle;html=1;exitX=0;exitY=0.5;exitDx=0;exitDy=0;exitPerimeter=0;fontSize=13;fontColor=#767171;rounded=0;endArrow=none;endFill=0;strokeColor=#767171;entryX=0.5;entryY=1;entryDx=0;entryDy=0;entryPerimeter=0;" edge="1" parent="1" source="17" target="5">
                    <mxGeometry relative="1" as="geometry">
                        <mxPoint x="113.255" y="209" as="targetPoint"/>
                        <mxPoint x="210" y="298.5" as="sourcePoint"/>
                    </mxGeometry>
                </mxCell>
                <mxCell id="49" style="edgeStyle=orthogonalEdgeStyle;html=1;exitX=0;exitY=0.5;exitDx=0;exitDy=0;exitPerimeter=0;fontSize=13;fontColor=#767171;rounded=0;endArrow=none;endFill=0;strokeColor=#767171;entryX=0.5;entryY=1;entryDx=0;entryDy=0;entryPerimeter=0;" edge="1" parent="1" source="22" target="5">
                    <mxGeometry relative="1" as="geometry">
                        <mxPoint x="113.255" y="209" as="targetPoint"/>
                        <mxPoint x="210" y="330" as="sourcePoint"/>
                    </mxGeometry>
                </mxCell>
                <mxCell id="50" style="edgeStyle=orthogonalEdgeStyle;html=1;exitX=0;exitY=0.5;exitDx=0;exitDy=0;exitPerimeter=0;fontSize=13;fontColor=#767171;rounded=0;endArrow=none;endFill=0;strokeColor=#767171;entryX=0.5;entryY=1;entryDx=0;entryDy=0;entryPerimeter=0;" edge="1" parent="1">
                    <mxGeometry relative="1" as="geometry">
                        <mxPoint x="100.005" y="399" as="targetPoint"/>
                        <mxPoint x="196.75" y="430" as="sourcePoint"/>
                    </mxGeometry>
                </mxCell>
                <mxCell id="51" style="edgeStyle=orthogonalEdgeStyle;html=1;exitX=0;exitY=0.5;exitDx=0;exitDy=0;exitPerimeter=0;fontSize=13;fontColor=#767171;rounded=0;endArrow=none;endFill=0;strokeColor=#767171;entryX=0.5;entryY=1;entryDx=0;entryDy=0;entryPerimeter=0;" edge="1" parent="1">
                    <mxGeometry relative="1" as="geometry">
                        <mxPoint x="100.005" y="480" as="targetPoint"/>
                        <mxPoint x="196.75" y="511" as="sourcePoint"/>
                    </mxGeometry>
                </mxCell>
                <mxCell id="52" value="..." style="text;html=1;resizable=0;autosize=1;align=left;verticalAlign=middle;points=[];fillColor=none;strokeColor=none;rounded=0;fontColor=#767171;fontStyle=1;fontSize=13;" vertex="1" parent="1">
                    <mxGeometry x="240" y="420" width="30" height="20" as="geometry"/>
                </mxCell>
                <mxCell id="53" value="..." style="text;html=1;resizable=0;autosize=1;align=left;verticalAlign=middle;points=[];fillColor=none;strokeColor=none;rounded=0;fontColor=#767171;fontStyle=1;fontSize=13;" vertex="1" parent="1">
                    <mxGeometry x="240" y="500" width="30" height="20" as="geometry"/>
                </mxCell>
                <mxCell id="55" value="" style="sketch=0;aspect=fixed;pointerEvents=1;shadow=0;dashed=0;html=1;strokeColor=none;labelPosition=center;verticalLabelPosition=bottom;verticalAlign=top;align=center;fillColor=#23A8D4;shape=mxgraph.mscae.enterprise.folder" vertex="1" parent="1">
                    <mxGeometry x="40" y="-301" width="46.51" height="40" as="geometry"/>
                </mxCell>
                <mxCell id="56" value="config" style="text;html=1;resizable=0;autosize=1;align=center;verticalAlign=middle;points=[];fillColor=none;strokeColor=none;rounded=0;fontColor=#23A8D4;fontStyle=1;fontSize=13;" vertex="1" parent="1">
                    <mxGeometry x="95" y="-289.5" width="50" height="20" as="geometry"/>
                </mxCell>
                <mxCell id="57" value="" style="verticalLabelPosition=bottom;html=1;verticalAlign=top;align=center;strokeColor=none;fillColor=#767171;shape=mxgraph.azure.file_2;pointerEvents=1;fontSize=13;fontColor=#23A8D4;aspect=fixed;" vertex="1" parent="1">
                    <mxGeometry x="199" y="-240" width="19" height="20" as="geometry"/>
                </mxCell>
                <mxCell id="58" value="" style="verticalLabelPosition=bottom;html=1;verticalAlign=top;align=center;strokeColor=none;fillColor=#767171;shape=mxgraph.azure.file_2;pointerEvents=1;fontSize=13;fontColor=#23A8D4;aspect=fixed;" vertex="1" parent="1">
                    <mxGeometry x="199" y="-211" width="19" height="20" as="geometry"/>
                </mxCell>
                <mxCell id="59" value="" style="verticalLabelPosition=bottom;html=1;verticalAlign=top;align=center;strokeColor=none;fillColor=#767171;shape=mxgraph.azure.file_2;pointerEvents=1;fontSize=13;fontColor=#23A8D4;aspect=fixed;" vertex="1" parent="1">
                    <mxGeometry x="199" y="-150" width="19" height="20" as="geometry"/>
                </mxCell>
                <mxCell id="60" value="conf.json" style="text;html=1;resizable=0;autosize=1;align=left;verticalAlign=middle;points=[];fillColor=none;strokeColor=none;rounded=0;fontColor=#767171;fontStyle=1;fontSize=13;" vertex="1" parent="1">
                    <mxGeometry x="239" y="-240" width="70" height="20" as="geometry"/>
                </mxCell>
                <mxCell id="61" value="keys.json" style="text;html=1;resizable=0;autosize=1;align=left;verticalAlign=middle;points=[];fillColor=none;strokeColor=none;rounded=0;fontColor=#767171;fontStyle=1;fontSize=13;" vertex="1" parent="1">
                    <mxGeometry x="239" y="-150" width="70" height="20" as="geometry"/>
                </mxCell>
                <mxCell id="62" value="deployment.json" style="text;html=1;resizable=0;autosize=1;align=left;verticalAlign=middle;points=[];fillColor=none;strokeColor=none;rounded=0;fontColor=#767171;fontStyle=1;fontSize=13;" vertex="1" parent="1">
                    <mxGeometry x="239" y="-211" width="120" height="20" as="geometry"/>
                </mxCell>
                <mxCell id="63" value="" style="verticalLabelPosition=bottom;html=1;verticalAlign=top;align=center;strokeColor=none;fillColor=#767171;shape=mxgraph.azure.file_2;pointerEvents=1;fontSize=13;fontColor=#23A8D4;aspect=fixed;" vertex="1" parent="1">
                    <mxGeometry x="199" y="-181.5" width="19" height="20" as="geometry"/>
                </mxCell>
                <mxCell id="64" value="" style="verticalLabelPosition=bottom;html=1;verticalAlign=top;align=center;strokeColor=none;fillColor=#767171;shape=mxgraph.azure.file_2;pointerEvents=1;fontSize=13;fontColor=#23A8D4;aspect=fixed;" vertex="1" parent="1">
                    <mxGeometry x="199" y="-120" width="19" height="20" as="geometry"/>
                </mxCell>
                <mxCell id="65" value="subnets.json" style="text;html=1;resizable=0;autosize=1;align=left;verticalAlign=middle;points=[];fillColor=none;strokeColor=none;rounded=0;fontColor=#767171;fontStyle=1;fontSize=13;" vertex="1" parent="1">
                    <mxGeometry x="239" y="-120" width="100" height="20" as="geometry"/>
                </mxCell>
                <mxCell id="66" value="destruction.json" style="text;html=1;resizable=0;autosize=1;align=left;verticalAlign=middle;points=[];fillColor=none;strokeColor=none;rounded=0;fontColor=#767171;fontStyle=1;fontSize=13;" vertex="1" parent="1">
                    <mxGeometry x="239" y="-181" width="120" height="20" as="geometry"/>
                </mxCell>
                <mxCell id="67" style="edgeStyle=orthogonalEdgeStyle;html=1;exitX=0;exitY=0.5;exitDx=0;exitDy=0;exitPerimeter=0;fontSize=13;fontColor=#767171;rounded=0;endArrow=none;endFill=0;strokeColor=#767171;entryX=0.5;entryY=1;entryDx=0;entryDy=0;entryPerimeter=0;" edge="1" parent="1" source="57" target="55">
                    <mxGeometry relative="1" as="geometry">
                        <mxPoint x="33.254999999999995" y="-490" as="targetPoint"/>
                        <mxPoint x="80" y="-480" as="sourcePoint"/>
                    </mxGeometry>
                </mxCell>
                <mxCell id="68" style="edgeStyle=orthogonalEdgeStyle;html=1;exitX=0;exitY=0.5;exitDx=0;exitDy=0;exitPerimeter=0;fontSize=13;fontColor=#767171;rounded=0;endArrow=none;endFill=0;strokeColor=#767171;entryX=0.5;entryY=1;entryDx=0;entryDy=0;entryPerimeter=0;" edge="1" parent="1" source="58" target="55">
                    <mxGeometry relative="1" as="geometry">
                        <mxPoint x="73.255" y="-251" as="targetPoint"/>
                        <mxPoint x="170" y="-220" as="sourcePoint"/>
                    </mxGeometry>
                </mxCell>
                <mxCell id="69" style="edgeStyle=orthogonalEdgeStyle;html=1;exitX=0;exitY=0.5;exitDx=0;exitDy=0;exitPerimeter=0;fontSize=13;fontColor=#767171;rounded=0;endArrow=none;endFill=0;strokeColor=#767171;entryX=0.5;entryY=1;entryDx=0;entryDy=0;entryPerimeter=0;" edge="1" parent="1" source="63" target="55">
                    <mxGeometry relative="1" as="geometry">
                        <mxPoint x="73.255" y="-251" as="targetPoint"/>
                        <mxPoint x="170" y="-191" as="sourcePoint"/>
                    </mxGeometry>
                </mxCell>
                <mxCell id="70" style="edgeStyle=orthogonalEdgeStyle;html=1;exitX=0;exitY=0.5;exitDx=0;exitDy=0;exitPerimeter=0;fontSize=13;fontColor=#767171;rounded=0;endArrow=none;endFill=0;strokeColor=#767171;entryX=0.5;entryY=1;entryDx=0;entryDy=0;entryPerimeter=0;" edge="1" parent="1" source="59" target="55">
                    <mxGeometry relative="1" as="geometry">
                        <mxPoint x="73.255" y="-251" as="targetPoint"/>
                        <mxPoint x="170" y="-161.5" as="sourcePoint"/>
                    </mxGeometry>
                </mxCell>
                <mxCell id="71" style="edgeStyle=orthogonalEdgeStyle;html=1;exitX=0;exitY=0.5;exitDx=0;exitDy=0;exitPerimeter=0;fontSize=13;fontColor=#767171;rounded=0;endArrow=none;endFill=0;strokeColor=#767171;entryX=0.5;entryY=1;entryDx=0;entryDy=0;entryPerimeter=0;" edge="1" parent="1" source="64" target="55">
                    <mxGeometry relative="1" as="geometry">
                        <mxPoint x="73.255" y="-251" as="targetPoint"/>
                        <mxPoint x="170" y="-130" as="sourcePoint"/>
                    </mxGeometry>
                </mxCell>
                <mxCell id="72" style="edgeStyle=orthogonalEdgeStyle;html=1;exitX=0;exitY=0.5;exitDx=0;exitDy=0;exitPerimeter=0;fontSize=13;fontColor=#767171;rounded=0;endArrow=none;endFill=0;strokeColor=#23A8D4;entryX=0.5;entryY=1;entryDx=0;entryDy=0;entryPerimeter=0;" edge="1" parent="1" source="55" target="35">
                    <mxGeometry relative="1" as="geometry">
                        <mxPoint x="30" y="-390" as="targetPoint"/>
                        <mxPoint x="50" y="-50" as="sourcePoint"/>
                    </mxGeometry>
                </mxCell>
            </root>
        </mxGraphModel>
    </diagram>
    <diagram id="xLq82gzqhY5AeUQ4T3tn" name="Parameters">
        <mxGraphModel dx="936" dy="693" grid="1" gridSize="10" guides="1" tooltips="1" connect="1" arrows="1" fold="1" page="1" pageScale="1" pageWidth="850" pageHeight="1100" math="0" shadow="0">
            <root>
                <mxCell id="myT2dv-Pd_2B82oIBJ8L-0"/>
                <mxCell id="myT2dv-Pd_2B82oIBJ8L-1" parent="myT2dv-Pd_2B82oIBJ8L-0"/>
                <mxCell id="ffWuLEoZwjST2HwnlcYI-0" value="" style="sketch=0;aspect=fixed;pointerEvents=1;shadow=0;dashed=0;html=1;strokeColor=none;labelPosition=center;verticalLabelPosition=bottom;verticalAlign=top;align=center;fillColor=#23A8D4;shape=mxgraph.mscae.enterprise.folder" vertex="1" parent="myT2dv-Pd_2B82oIBJ8L-1">
                    <mxGeometry x="80" y="20" width="46.51" height="40" as="geometry"/>
                </mxCell>
                <mxCell id="ffWuLEoZwjST2HwnlcYI-1" value="task1" style="text;html=1;resizable=0;autosize=1;align=center;verticalAlign=middle;points=[];fillColor=none;strokeColor=none;rounded=0;fontColor=#23A8D4;fontStyle=1;fontSize=13;" vertex="1" parent="myT2dv-Pd_2B82oIBJ8L-1">
                    <mxGeometry x="135" y="31.5" width="50" height="20" as="geometry"/>
                </mxCell>
                <mxCell id="ffWuLEoZwjST2HwnlcYI-2" value="" style="sketch=0;aspect=fixed;pointerEvents=1;shadow=0;dashed=0;html=1;strokeColor=none;labelPosition=center;verticalLabelPosition=bottom;verticalAlign=top;align=center;fillColor=#23A8D4;shape=mxgraph.mscae.enterprise.folder" vertex="1" parent="myT2dv-Pd_2B82oIBJ8L-1">
                    <mxGeometry x="200" y="21.5" width="46.51" height="40" as="geometry"/>
                </mxCell>
                <mxCell id="ffWuLEoZwjST2HwnlcYI-3" value="task2" style="text;html=1;resizable=0;autosize=1;align=center;verticalAlign=middle;points=[];fillColor=none;strokeColor=none;rounded=0;fontColor=#23A8D4;fontStyle=1;fontSize=13;" vertex="1" parent="myT2dv-Pd_2B82oIBJ8L-1">
                    <mxGeometry x="255" y="33" width="50" height="20" as="geometry"/>
                </mxCell>
                <mxCell id="ffWuLEoZwjST2HwnlcYI-6" value="" style="verticalLabelPosition=bottom;html=1;verticalAlign=top;align=center;strokeColor=none;fillColor=#767171;shape=mxgraph.azure.file_2;pointerEvents=1;fontSize=13;fontColor=#23A8D4;aspect=fixed;" vertex="1" parent="myT2dv-Pd_2B82oIBJ8L-1">
                    <mxGeometry x="151" y="101" width="19" height="20" as="geometry"/>
                </mxCell>
                <mxCell id="ffWuLEoZwjST2HwnlcYI-9" value="conf.tfvars" style="text;html=1;resizable=0;autosize=1;align=left;verticalAlign=middle;points=[];fillColor=none;strokeColor=none;rounded=0;fontColor=#767171;fontStyle=1;fontSize=13;" vertex="1" parent="myT2dv-Pd_2B82oIBJ8L-1">
                    <mxGeometry x="181" y="101" width="80" height="20" as="geometry"/>
                </mxCell>
                <mxCell id="ffWuLEoZwjST2HwnlcYI-27" value="&lt;p style=&quot;line-height: 0.6&quot;&gt;&lt;/p&gt;&lt;div style=&quot;background-color: rgb(30 , 30 , 30) ; font-family: &amp;#34;consolas&amp;#34; , &amp;#34;courier new&amp;#34; , monospace ; font-weight: normal ; line-height: 19px ; font-size: 11px&quot;&gt;&lt;div style=&quot;color: rgb(212 , 212 , 212)&quot;&gt;&lt;font style=&quot;font-size: 11px&quot;&gt;&lt;span style=&quot;color: rgb(156 , 220 , 254)&quot;&gt;environment &lt;/span&gt;&lt;span style=&quot;color: rgb(212 , 212 , 212)&quot;&gt;=&lt;/span&gt;&lt;span style=&quot;color: rgb(156 , 220 , 254)&quot;&gt; &lt;/span&gt;&lt;span style=&quot;color: rgb(206 , 145 , 120)&quot;&gt;&quot;prod&quot;&lt;/span&gt;&lt;/font&gt;&lt;/div&gt;&lt;div style=&quot;color: rgb(212 , 212 , 212)&quot;&gt;&lt;font style=&quot;font-size: 11px&quot;&gt;&lt;span style=&quot;color: rgb(156 , 220 , 254)&quot;&gt;contact_email &lt;/span&gt;&lt;span style=&quot;color: rgb(212 , 212 , 212)&quot;&gt;=&lt;/span&gt;&lt;span style=&quot;color: rgb(156 , 220 , 254)&quot;&gt; &lt;/span&gt;&lt;span style=&quot;color: rgb(206 , 145 , 120)&quot;&gt;&quot;toy.deployment@gmail.com&quot;&lt;/span&gt;&lt;/font&gt;&lt;/div&gt;&lt;div style=&quot;color: rgb(212 , 212 , 212)&quot;&gt;&lt;font style=&quot;font-size: 11px&quot;&gt;&lt;span style=&quot;color: rgb(156 , 220 , 254)&quot;&gt;topic &lt;/span&gt;&lt;span style=&quot;color: rgb(212 , 212 , 212)&quot;&gt;=&lt;/span&gt;&lt;span style=&quot;color: rgb(156 , 220 , 254)&quot;&gt; &lt;/span&gt;&lt;span style=&quot;color: rgb(206 , 145 , 120)&quot;&gt;&quot;toy-deployment&quot;&lt;/span&gt;&lt;/font&gt;&lt;/div&gt;&lt;div style=&quot;color: rgb(212 , 212 , 212)&quot;&gt;&lt;font style=&quot;font-size: 11px&quot;&gt;&lt;span style=&quot;color: rgb(156 , 220 , 254)&quot;&gt;git_version &lt;/span&gt;&lt;span style=&quot;color: rgb(212 , 212 , 212)&quot;&gt;=&lt;/span&gt;&lt;span style=&quot;color: rgb(156 , 220 , 254)&quot;&gt; &lt;/span&gt;&lt;span style=&quot;color: rgb(206 , 145 , 120)&quot;&gt;&quot;v1.2.1&quot;&lt;/span&gt;&lt;/font&gt;&lt;/div&gt;&lt;div style=&quot;color: rgb(212 , 212 , 212)&quot;&gt;&lt;font style=&quot;font-size: 11px&quot;&gt;&lt;span style=&quot;color: rgb(156 , 220 , 254)&quot;&gt;module &lt;/span&gt;&lt;span style=&quot;color: rgb(212 , 212 , 212)&quot;&gt;=&lt;/span&gt;&lt;span style=&quot;color: rgb(156 , 220 , 254)&quot;&gt; &lt;/span&gt;&lt;span style=&quot;color: rgb(206 , 145 , 120)&quot;&gt;&quot;step1&quot;&lt;/span&gt;&lt;/font&gt;&lt;/div&gt;&lt;font style=&quot;font-size: 11px&quot;&gt;&lt;font color=&quot;#9cdcfe&quot; style=&quot;font-size: 11px&quot;&gt;var1&lt;/font&gt;&lt;font color=&quot;#d4d4d4&quot; style=&quot;font-size: 11px&quot;&gt; =&amp;nbsp;&lt;/font&gt;&lt;span style=&quot;font-family: &amp;#34;consolas&amp;#34; , &amp;#34;courier new&amp;#34; , monospace&quot;&gt;&lt;font color=&quot;#ce9178&quot; style=&quot;font-size: 11px&quot;&gt;&quot;oups! I did it again!&quot;&lt;/font&gt;&lt;/span&gt;&lt;/font&gt;&lt;/div&gt;&lt;div style=&quot;background-color: rgb(30 , 30 , 30) ; font-family: &amp;#34;consolas&amp;#34; , &amp;#34;courier new&amp;#34; , monospace ; font-weight: normal ; line-height: 19px ; font-size: 11px&quot;&gt;&lt;font style=&quot;font-size: 11px&quot;&gt;&lt;span style=&quot;font-family: &amp;#34;consolas&amp;#34; , &amp;#34;courier new&amp;#34; , monospace&quot;&gt;&lt;font color=&quot;#9cdcfe&quot; style=&quot;font-size: 11px&quot;&gt;var2&lt;/font&gt;&lt;font color=&quot;#d4d4d4&quot; style=&quot;font-size: 11px&quot;&gt; =&amp;nbsp;&lt;/font&gt;&lt;/span&gt;&lt;span style=&quot;font-family: &amp;#34;consolas&amp;#34; , &amp;#34;courier new&amp;#34; , monospace&quot;&gt;&lt;font color=&quot;#ffffff&quot; style=&quot;font-size: 11px&quot;&gt;[&lt;/font&gt;&lt;font color=&quot;#ce9178&quot; style=&quot;font-size: 11px&quot;&gt;&amp;nbsp;&lt;/font&gt;&lt;/span&gt;&lt;/font&gt;&lt;/div&gt;&lt;div style=&quot;background-color: rgb(30 , 30 , 30) ; font-family: &amp;#34;consolas&amp;#34; , &amp;#34;courier new&amp;#34; , monospace ; font-weight: normal ; line-height: 19px ; font-size: 11px&quot;&gt;&lt;font style=&quot;font-size: 11px&quot;&gt;&lt;span style=&quot;font-family: &amp;#34;consolas&amp;#34; , &amp;#34;courier new&amp;#34; , monospace&quot;&gt;&lt;font color=&quot;#ce9178&quot; style=&quot;font-size: 11px&quot;&gt;&amp;nbsp;&lt;/font&gt;&lt;font color=&quot;#ffffff&quot; style=&quot;font-size: 11px&quot;&gt; 5&lt;/font&gt;&lt;/span&gt;&lt;span style=&quot;font-family: &amp;#34;consolas&amp;#34; , &amp;#34;courier new&amp;#34; , monospace&quot;&gt;&lt;font color=&quot;#ffffff&quot; style=&quot;font-size: 11px&quot;&gt;,&amp;nbsp;&lt;/font&gt;&lt;/span&gt;&lt;/font&gt;&lt;/div&gt;&lt;div style=&quot;background-color: rgb(30 , 30 , 30) ; font-family: &amp;#34;consolas&amp;#34; , &amp;#34;courier new&amp;#34; , monospace ; font-weight: normal ; line-height: 19px ; font-size: 11px&quot;&gt;&lt;font color=&quot;#ffffff&quot; style=&quot;font-size: 11px&quot;&gt;&lt;span style=&quot;font-family: &amp;#34;consolas&amp;#34; , &amp;#34;courier new&amp;#34; , monospace&quot;&gt;&amp;nbsp; 6&lt;/span&gt;&lt;span style=&quot;font-family: &amp;#34;consolas&amp;#34; , &amp;#34;courier new&amp;#34; , monospace&quot;&gt;,&amp;nbsp;&lt;/span&gt;&lt;/font&gt;&lt;/div&gt;&lt;div style=&quot;background-color: rgb(30 , 30 , 30) ; font-family: &amp;#34;consolas&amp;#34; , &amp;#34;courier new&amp;#34; , monospace ; font-weight: normal ; line-height: 19px ; font-size: 11px&quot;&gt;&lt;font color=&quot;#ffffff&quot; style=&quot;font-size: 11px&quot;&gt;&lt;span style=&quot;font-family: &amp;#34;consolas&amp;#34; , &amp;#34;courier new&amp;#34; , monospace&quot;&gt;&amp;nbsp; 7&lt;/span&gt;&lt;span style=&quot;font-family: &amp;#34;consolas&amp;#34; , &amp;#34;courier new&amp;#34; , monospace&quot;&gt;,&amp;nbsp;&lt;/span&gt;&lt;/font&gt;&lt;/div&gt;&lt;div style=&quot;background-color: rgb(30 , 30 , 30) ; font-family: &amp;#34;consolas&amp;#34; , &amp;#34;courier new&amp;#34; , monospace ; font-weight: normal ; line-height: 19px ; font-size: 11px&quot;&gt;&lt;span style=&quot;font-family: &amp;#34;consolas&amp;#34; , &amp;#34;courier new&amp;#34; , monospace&quot;&gt;&lt;font style=&quot;font-size: 11px&quot;&gt;&lt;font color=&quot;#ffffff&quot; style=&quot;font-size: 11px&quot;&gt;&amp;nbsp; {&lt;/font&gt;&lt;font color=&quot;#ce9178&quot; style=&quot;font-size: 11px&quot;&gt;&amp;nbsp;&lt;/font&gt;&lt;/font&gt;&lt;/span&gt;&lt;/div&gt;&lt;div style=&quot;background-color: rgb(30 , 30 , 30) ; font-family: &amp;#34;consolas&amp;#34; , &amp;#34;courier new&amp;#34; , monospace ; font-weight: normal ; line-height: 19px ; font-size: 11px&quot;&gt;&lt;span style=&quot;font-family: &amp;#34;consolas&amp;#34; , &amp;#34;courier new&amp;#34; , monospace&quot;&gt;&lt;font style=&quot;font-size: 11px&quot;&gt;&lt;font color=&quot;#ce9178&quot; style=&quot;font-size: 11px&quot;&gt;&amp;nbsp; &amp;nbsp; &lt;/font&gt;&lt;font color=&quot;#9cdcfe&quot; style=&quot;font-size: 11px&quot;&gt;number&lt;/font&gt;&lt;font color=&quot;#ffffff&quot; style=&quot;font-size: 11px&quot;&gt; =&amp;nbsp;&lt;/font&gt;&lt;font color=&quot;#ce9178&quot; style=&quot;font-size: 11px&quot;&gt;&quot;eight&quot;&amp;nbsp;&lt;/font&gt;&lt;/font&gt;&lt;/span&gt;&lt;/div&gt;&lt;div style=&quot;background-color: rgb(30 , 30 , 30) ; font-family: &amp;#34;consolas&amp;#34; , &amp;#34;courier new&amp;#34; , monospace ; font-weight: normal ; line-height: 19px ; font-size: 11px&quot;&gt;&lt;span style=&quot;font-family: &amp;#34;consolas&amp;#34; , &amp;#34;courier new&amp;#34; , monospace&quot;&gt;&lt;font style=&quot;font-size: 11px&quot;&gt;&lt;font color=&quot;#ce9178&quot; style=&quot;font-size: 11px&quot;&gt;&amp;nbsp; &lt;/font&gt;&lt;font color=&quot;#ffffff&quot; style=&quot;font-size: 11px&quot;&gt;}&amp;nbsp;&lt;/font&gt;&lt;/font&gt;&lt;/span&gt;&lt;/div&gt;&lt;div style=&quot;background-color: rgb(30 , 30 , 30) ; font-family: &amp;#34;consolas&amp;#34; , &amp;#34;courier new&amp;#34; , monospace ; font-weight: normal ; line-height: 19px ; font-size: 11px&quot;&gt;&lt;font style=&quot;font-size: 11px&quot;&gt;&lt;span style=&quot;font-family: &amp;#34;consolas&amp;#34; , &amp;#34;courier new&amp;#34; , monospace&quot;&gt;&lt;font color=&quot;#ffffff&quot; style=&quot;font-size: 11px&quot;&gt;]&lt;/font&gt;&lt;/span&gt;&lt;br&gt;&lt;/font&gt;&lt;/div&gt;&lt;div style=&quot;background-color: rgb(30 , 30 , 30) ; font-family: &amp;#34;consolas&amp;#34; , &amp;#34;courier new&amp;#34; , monospace ; font-weight: normal ; line-height: 19px ; font-size: 11px&quot;&gt;&lt;div style=&quot;font-family: &amp;#34;consolas&amp;#34; , &amp;#34;courier new&amp;#34; , monospace ; line-height: 19px&quot;&gt;&lt;div&gt;&lt;font style=&quot;font-size: 11px&quot;&gt;&lt;font color=&quot;#d4d4d4&quot; style=&quot;font-size: 11px&quot;&gt;var3 =&lt;/font&gt;&lt;span style=&quot;color: rgb(197 , 134 , 192)&quot;&gt;&amp;nbsp;&lt;/span&gt;&lt;font color=&quot;#ffffff&quot; style=&quot;font-size: 11px&quot;&gt;{&lt;/font&gt;&lt;span style=&quot;color: rgb(197 , 134 , 192)&quot;&gt;&amp;nbsp;&lt;/span&gt;&lt;/font&gt;&lt;/div&gt;&lt;div&gt;&lt;font style=&quot;font-size: 11px&quot;&gt;&lt;font color=&quot;#c586c0&quot; style=&quot;font-size: 11px&quot;&gt;&amp;nbsp;&amp;nbsp;&lt;/font&gt;&lt;font color=&quot;#9cdcfe&quot; style=&quot;font-size: 11px&quot;&gt;content &lt;/font&gt;&lt;font color=&quot;#ffffff&quot; style=&quot;font-size: 11px&quot;&gt;=&lt;/font&gt;&lt;span style=&quot;color: rgb(197 , 134 , 192)&quot;&gt;&amp;nbsp;&lt;/span&gt;&lt;font color=&quot;#ce9178&quot; style=&quot;font-size: 11px&quot;&gt;&quot;of_my_beautiful_json_file&quot;&lt;/font&gt;&lt;/font&gt;&lt;/div&gt;&lt;div style=&quot;color: rgb(212 , 212 , 212)&quot;&gt;&lt;font style=&quot;font-size: 11px&quot;&gt;}&lt;/font&gt;&lt;/div&gt;&lt;/div&gt;&lt;/div&gt;&lt;p&gt;&lt;/p&gt;" style="text;whiteSpace=wrap;html=1;fontSize=10;fontColor=#767171;spacing=0;" vertex="1" parent="myT2dv-Pd_2B82oIBJ8L-1">
                    <mxGeometry x="50" y="130" width="270" height="339" as="geometry"/>
                </mxCell>
                <mxCell id="ffWuLEoZwjST2HwnlcYI-28" value="" style="sketch=0;aspect=fixed;pointerEvents=1;shadow=0;dashed=0;html=1;strokeColor=none;labelPosition=center;verticalLabelPosition=bottom;verticalAlign=top;align=center;fillColor=#23A8D4;shape=mxgraph.mscae.enterprise.folder" vertex="1" parent="myT2dv-Pd_2B82oIBJ8L-1">
                    <mxGeometry x="460" y="21.5" width="46.51" height="40" as="geometry"/>
                </mxCell>
                <mxCell id="ffWuLEoZwjST2HwnlcYI-29" value="task3" style="text;html=1;resizable=0;autosize=1;align=center;verticalAlign=middle;points=[];fillColor=none;strokeColor=none;rounded=0;fontColor=#23A8D4;fontStyle=1;fontSize=13;" vertex="1" parent="myT2dv-Pd_2B82oIBJ8L-1">
                    <mxGeometry x="515" y="33" width="50" height="20" as="geometry"/>
                </mxCell>
                <mxCell id="ffWuLEoZwjST2HwnlcYI-30" style="html=1;exitX=0.5;exitY=0;exitDx=0;exitDy=0;exitPerimeter=0;fontSize=13;fontColor=#767171;rounded=0;endArrow=none;endFill=0;strokeColor=#767171;entryX=0.5;entryY=1;entryDx=0;entryDy=0;entryPerimeter=0;" edge="1" parent="myT2dv-Pd_2B82oIBJ8L-1" source="ffWuLEoZwjST2HwnlcYI-32">
                    <mxGeometry relative="1" as="geometry">
                        <mxPoint x="480.005" y="61.5" as="targetPoint"/>
                        <mxPoint x="576.75" y="92.5" as="sourcePoint"/>
                    </mxGeometry>
                </mxCell>
                <mxCell id="ffWuLEoZwjST2HwnlcYI-31" value="conf.tfvars" style="text;html=1;resizable=0;autosize=1;align=left;verticalAlign=middle;points=[];fillColor=none;strokeColor=none;rounded=0;fontColor=#767171;fontStyle=1;fontSize=13;" vertex="1" parent="myT2dv-Pd_2B82oIBJ8L-1">
                    <mxGeometry x="506.51" y="102.5" width="80" height="20" as="geometry"/>
                </mxCell>
                <mxCell id="ffWuLEoZwjST2HwnlcYI-32" value="" style="verticalLabelPosition=bottom;html=1;verticalAlign=top;align=center;strokeColor=none;fillColor=#767171;shape=mxgraph.azure.file_2;pointerEvents=1;fontSize=13;fontColor=#23A8D4;aspect=fixed;" vertex="1" parent="myT2dv-Pd_2B82oIBJ8L-1">
                    <mxGeometry x="470" y="102.5" width="19" height="20" as="geometry"/>
                </mxCell>
                <mxCell id="ffWuLEoZwjST2HwnlcYI-33" value="&lt;p style=&quot;line-height: 0.6&quot;&gt;&lt;/p&gt;&lt;div style=&quot;background-color: rgb(30 , 30 , 30) ; font-family: &amp;#34;consolas&amp;#34; , &amp;#34;courier new&amp;#34; , monospace ; font-weight: normal ; line-height: 19px&quot;&gt;&lt;div style=&quot;font-size: 11px ; color: rgb(212 , 212 , 212)&quot;&gt;&lt;font style=&quot;font-size: 11px&quot;&gt;&lt;span style=&quot;color: rgb(156 , 220 , 254)&quot;&gt;environment &lt;/span&gt;&lt;span style=&quot;color: rgb(212 , 212 , 212)&quot;&gt;=&lt;/span&gt;&lt;span style=&quot;color: rgb(156 , 220 , 254)&quot;&gt; &lt;/span&gt;&lt;span style=&quot;color: rgb(206 , 145 , 120)&quot;&gt;&quot;prod&quot;&lt;/span&gt;&lt;/font&gt;&lt;/div&gt;&lt;div style=&quot;font-size: 11px ; color: rgb(212 , 212 , 212)&quot;&gt;&lt;font style=&quot;font-size: 11px&quot;&gt;&lt;span style=&quot;color: rgb(156 , 220 , 254)&quot;&gt;contact_email &lt;/span&gt;&lt;span style=&quot;color: rgb(212 , 212 , 212)&quot;&gt;=&lt;/span&gt;&lt;span style=&quot;color: rgb(156 , 220 , 254)&quot;&gt; &lt;/span&gt;&lt;span style=&quot;color: rgb(206 , 145 , 120)&quot;&gt;&quot;toy.deployment@gmail.com&quot;&lt;/span&gt;&lt;/font&gt;&lt;/div&gt;&lt;div style=&quot;font-size: 11px ; color: rgb(212 , 212 , 212)&quot;&gt;&lt;font style=&quot;font-size: 11px&quot;&gt;&lt;span style=&quot;color: rgb(156 , 220 , 254)&quot;&gt;topic &lt;/span&gt;&lt;span style=&quot;color: rgb(212 , 212 , 212)&quot;&gt;=&lt;/span&gt;&lt;span style=&quot;color: rgb(156 , 220 , 254)&quot;&gt; &lt;/span&gt;&lt;span style=&quot;color: rgb(206 , 145 , 120)&quot;&gt;&quot;toy-deployment&quot;&lt;/span&gt;&lt;/font&gt;&lt;/div&gt;&lt;div style=&quot;font-size: 11px ; color: rgb(212 , 212 , 212)&quot;&gt;&lt;font style=&quot;font-size: 11px&quot;&gt;&lt;span style=&quot;color: rgb(156 , 220 , 254)&quot;&gt;git_version &lt;/span&gt;&lt;span style=&quot;color: rgb(212 , 212 , 212)&quot;&gt;=&lt;/span&gt;&lt;span style=&quot;color: rgb(156 , 220 , 254)&quot;&gt; &lt;/span&gt;&lt;span style=&quot;color: rgb(206 , 145 , 120)&quot;&gt;&quot;v1.2.1&quot;&lt;/span&gt;&lt;/font&gt;&lt;/div&gt;&lt;div style=&quot;font-size: 11px ; color: rgb(212 , 212 , 212)&quot;&gt;&lt;font style=&quot;font-size: 11px&quot;&gt;&lt;span style=&quot;color: rgb(156 , 220 , 254)&quot;&gt;module &lt;/span&gt;&lt;span style=&quot;color: rgb(212 , 212 , 212)&quot;&gt;=&lt;/span&gt;&lt;span style=&quot;color: rgb(156 , 220 , 254)&quot;&gt; &lt;/span&gt;&lt;span style=&quot;color: rgb(206 , 145 , 120)&quot;&gt;&quot;step1&quot;&lt;/span&gt;&lt;/font&gt;&lt;/div&gt;&lt;div&gt;&lt;span style=&quot;font-family: &amp;#34;consolas&amp;#34; , &amp;#34;courier new&amp;#34; , monospace&quot;&gt;&lt;font style=&quot;font-size: 11px&quot;&gt;&lt;font color=&quot;#9cdcfe&quot;&gt;var6&amp;nbsp;&lt;/font&gt;&lt;font color=&quot;#d4d4d4&quot;&gt;= {&amp;nbsp;&lt;/font&gt;&lt;/font&gt;&lt;/span&gt;&lt;/div&gt;&lt;div&gt;&lt;span style=&quot;font-family: &amp;#34;consolas&amp;#34; , &amp;#34;courier new&amp;#34; , monospace&quot;&gt;&lt;font style=&quot;font-size: 11px&quot;&gt;&lt;font color=&quot;#d4d4d4&quot;&gt;&amp;nbsp; &amp;nbsp;&lt;/font&gt;&lt;font color=&quot;#9cdcfe&quot;&gt;key&lt;/font&gt;&lt;font color=&quot;#d4d4d4&quot;&gt; = &lt;/font&gt;&lt;font color=&quot;#ce9178&quot;&gt;&quot;value&quot;&lt;/font&gt;&lt;/font&gt;&lt;/span&gt;&lt;/div&gt;&lt;div&gt;&lt;span style=&quot;font-family: &amp;#34;consolas&amp;#34; , &amp;#34;courier new&amp;#34; , monospace&quot;&gt;&lt;font style=&quot;font-size: 11px&quot;&gt;&lt;font color=&quot;#d4d4d4&quot;&gt;}&lt;/font&gt;&lt;/font&gt;&lt;/span&gt;&lt;/div&gt;&lt;/div&gt;&lt;p&gt;&lt;/p&gt;" style="text;whiteSpace=wrap;html=1;fontSize=10;fontColor=#767171;spacing=0;" vertex="1" parent="myT2dv-Pd_2B82oIBJ8L-1">
                    <mxGeometry x="360" y="130" width="270" height="170" as="geometry"/>
                </mxCell>
                <mxCell id="ffWuLEoZwjST2HwnlcYI-34" style="edgeStyle=orthogonalEdgeStyle;html=1;exitX=0.5;exitY=0;exitDx=0;exitDy=0;exitPerimeter=0;fontSize=13;fontColor=#767171;rounded=0;endArrow=none;endFill=0;strokeColor=#767171;entryX=0.5;entryY=1;entryDx=0;entryDy=0;entryPerimeter=0;" edge="1" parent="myT2dv-Pd_2B82oIBJ8L-1" source="ffWuLEoZwjST2HwnlcYI-6" target="ffWuLEoZwjST2HwnlcYI-2">
                    <mxGeometry relative="1" as="geometry">
                        <mxPoint x="390.0050000000001" y="70" as="targetPoint"/>
                        <mxPoint x="486.75" y="101" as="sourcePoint"/>
                        <Array as="points">
                            <mxPoint x="161" y="80"/>
                            <mxPoint x="223" y="80"/>
                        </Array>
                    </mxGeometry>
                </mxCell>
                <mxCell id="ffWuLEoZwjST2HwnlcYI-35" style="html=1;fontSize=13;fontColor=#767171;rounded=0;endArrow=none;endFill=0;strokeColor=#767171;entryX=0.5;entryY=1;entryDx=0;entryDy=0;entryPerimeter=0;exitX=0.5;exitY=0;exitDx=0;exitDy=0;exitPerimeter=0;edgeStyle=orthogonalEdgeStyle;" edge="1" parent="myT2dv-Pd_2B82oIBJ8L-1" source="ffWuLEoZwjST2HwnlcYI-6" target="ffWuLEoZwjST2HwnlcYI-0">
                    <mxGeometry relative="1" as="geometry">
                        <mxPoint x="233.255" y="71.5" as="targetPoint"/>
                        <mxPoint x="190" y="111" as="sourcePoint"/>
                    </mxGeometry>
                </mxCell>
                <mxCell id="ffWuLEoZwjST2HwnlcYI-36" value="&lt;div style=&quot;background-color: rgb(30 , 30 , 30) ; font-family: &amp;quot;consolas&amp;quot; , &amp;quot;courier new&amp;quot; , monospace ; font-size: 14px ; line-height: 19px&quot;&gt;&lt;font&gt;terraform plan ... -var=&quot;var4=&amp;lt;secret4&amp;gt;&quot;&lt;/font&gt;&lt;/div&gt;" style="text;html=1;resizable=0;autosize=1;align=center;verticalAlign=middle;points=[];fillColor=none;strokeColor=none;rounded=0;fontSize=11;fontColor=#FFFFFF;" vertex="1" parent="myT2dv-Pd_2B82oIBJ8L-1">
                    <mxGeometry x="15" y="498" width="320" height="20" as="geometry"/>
                </mxCell>
                <mxCell id="ffWuLEoZwjST2HwnlcYI-37" value="&lt;div style=&quot;background-color: rgb(30 , 30 , 30) ; font-family: &amp;quot;consolas&amp;quot; , &amp;quot;courier new&amp;quot; , monospace ; font-size: 14px ; line-height: 19px&quot;&gt;&lt;font&gt;terraform plan ... -var=&quot;var6=&amp;lt;secret6&amp;gt;&quot;&lt;/font&gt;&lt;/div&gt;" style="text;html=1;resizable=0;autosize=1;align=center;verticalAlign=middle;points=[];fillColor=none;strokeColor=none;rounded=0;fontSize=11;fontColor=#FFFFFF;" vertex="1" parent="myT2dv-Pd_2B82oIBJ8L-1">
                    <mxGeometry x="345" y="498" width="320" height="20" as="geometry"/>
                </mxCell>
            </root>
        </mxGraphModel>
    </diagram>
</mxfile>